<svg width="202" height="80" viewBox="0 0 202 80" fill="none" xmlns="http://www.w3.org/2000/svg">
<path d="M79.208 43.152L78.632 46.392H71.768L71.144 50.016H76.28L75.704 53.136H70.568L69.368 60H65.264L68.24 43.152H79.208ZM85.709 60.192C84.557 60.192 83.533 59.96 82.637 59.496C81.741 59.032 81.045 58.376 80.549 57.528C80.069 56.68 79.829 55.696 79.829 54.576C79.829 53.056 80.189 51.672 80.909 50.424C81.629 49.176 82.621 48.2 83.885 47.496C85.149 46.776 86.557 46.416 88.109 46.416C89.261 46.416 90.285 46.656 91.181 47.136C92.093 47.6 92.797 48.256 93.293 49.104C93.789 49.952 94.037 50.936 94.037 52.056C94.037 53.592 93.669 54.984 92.933 56.232C92.213 57.464 91.213 58.432 89.933 59.136C88.669 59.84 87.261 60.192 85.709 60.192ZM86.285 56.664C86.957 56.664 87.557 56.464 88.085 56.064C88.629 55.648 89.045 55.12 89.333 54.48C89.637 53.824 89.789 53.144 89.789 52.44C89.789 51.64 89.573 51.024 89.141 50.592C88.709 50.16 88.165 49.944 87.509 49.944C86.821 49.944 86.213 50.152 85.685 50.568C85.173 50.968 84.773 51.496 84.485 52.152C84.197 52.808 84.053 53.496 84.053 54.216C84.053 55 84.261 55.608 84.677 56.04C85.093 56.456 85.629 56.664 86.285 56.664ZM102.19 60.192C101.038 60.192 100.014 59.96 99.1182 59.496C98.2222 59.032 97.5262 58.376 97.0302 57.528C96.5502 56.68 96.3102 55.696 96.3102 54.576C96.3102 53.056 96.6702 51.672 97.3902 50.424C98.1102 49.176 99.1022 48.2 100.366 47.496C101.63 46.776 103.038 46.416 104.59 46.416C105.742 46.416 106.766 46.656 107.662 47.136C108.574 47.6 109.278 48.256 109.774 49.104C110.27 49.952 110.518 50.936 110.518 52.056C110.518 53.592 110.15 54.984 109.414 56.232C108.694 57.464 107.694 58.432 106.414 59.136C105.15 59.84 103.742 60.192 102.19 60.192ZM102.766 56.664C103.438 56.664 104.038 56.464 104.566 56.064C105.11 55.648 105.526 55.12 105.814 54.48C106.118 53.824 106.27 53.144 106.27 52.44C106.27 51.64 106.054 51.024 105.622 50.592C105.19 50.16 104.646 49.944 103.99 49.944C103.302 49.944 102.694 50.152 102.166 50.568C101.654 50.968 101.254 51.496 100.966 52.152C100.678 52.808 100.534 53.496 100.534 54.216C100.534 55 100.742 55.608 101.158 56.04C101.574 56.456 102.11 56.664 102.766 56.664ZM112.935 53.28C113.175 51.904 113.647 50.696 114.351 49.656C115.055 48.616 115.903 47.816 116.895 47.256C117.887 46.696 118.935 46.416 120.039 46.416C120.919 46.416 121.687 46.6 122.343 46.968C123.015 47.336 123.503 47.832 123.807 48.456L124.911 42.24H129.015L125.871 60H121.767L122.103 58.08C121.591 58.72 120.951 59.232 120.183 59.616C119.415 60 118.559 60.192 117.615 60.192C116.671 60.192 115.831 59.976 115.095 59.544C114.375 59.112 113.807 58.496 113.391 57.696C112.991 56.896 112.791 55.96 112.791 54.888C112.791 54.392 112.839 53.856 112.935 53.28ZM122.967 53.304C123.015 53.016 123.039 52.752 123.039 52.512C123.039 51.728 122.807 51.112 122.343 50.664C121.895 50.216 121.319 49.992 120.615 49.992C119.799 49.992 119.055 50.288 118.383 50.88C117.711 51.456 117.287 52.256 117.111 53.28C117.063 53.568 117.039 53.832 117.039 54.072C117.039 54.856 117.263 55.48 117.711 55.944C118.175 56.392 118.751 56.616 119.439 56.616C120.255 56.616 120.999 56.32 121.671 55.728C122.343 55.136 122.775 54.328 122.967 53.304ZM136.737 60.168C134.913 60.168 133.425 59.776 132.273 58.992C131.137 58.192 130.569 57.064 130.569 55.608C130.569 55.464 130.585 55.248 130.617 54.96H134.889C134.841 55.568 134.985 56.048 135.321 56.4C135.657 56.752 136.169 56.928 136.857 56.928C137.481 56.928 137.969 56.792 138.321 56.52C138.689 56.248 138.873 55.864 138.873 55.368C138.873 54.856 138.641 54.44 138.177 54.12C137.729 53.8 137.025 53.44 136.065 53.04C135.137 52.656 134.377 52.296 133.785 51.96C133.209 51.608 132.705 51.136 132.273 50.544C131.841 49.952 131.625 49.208 131.625 48.312C131.609 47.208 131.881 46.248 132.441 45.432C133.001 44.616 133.777 43.992 134.769 43.56C135.761 43.128 136.897 42.912 138.177 42.912C139.329 42.912 140.353 43.096 141.249 43.464C142.145 43.816 142.841 44.336 143.337 45.024C143.833 45.696 144.081 46.496 144.081 47.424C144.081 47.664 144.073 47.84 144.057 47.952H139.689C139.705 47.888 139.713 47.792 139.713 47.664C139.713 47.216 139.553 46.856 139.233 46.584C138.929 46.296 138.505 46.152 137.961 46.152C137.385 46.152 136.913 46.296 136.545 46.584C136.193 46.856 136.017 47.232 136.017 47.712C136.017 48.192 136.241 48.6 136.689 48.936C137.137 49.256 137.833 49.632 138.777 50.064C139.721 50.496 140.489 50.896 141.081 51.264C141.689 51.632 142.209 52.128 142.641 52.752C143.073 53.36 143.289 54.112 143.289 55.008C143.289 56 143.025 56.888 142.497 57.672C141.969 58.456 141.209 59.072 140.217 59.52C139.225 59.952 138.065 60.168 136.737 60.168ZM151.738 55.392C151.722 55.472 151.714 55.576 151.714 55.704C151.714 55.992 151.794 56.2 151.954 56.328C152.13 56.456 152.41 56.52 152.794 56.52H154.258L153.634 60H151.546C148.858 60 147.514 58.872 147.514 56.616C147.514 56.28 147.554 55.856 147.634 55.344L148.594 50.016H146.962L147.562 46.608H149.194L149.77 43.344H153.874L153.298 46.608H155.986L155.386 50.016H152.698L151.738 55.392ZM163.24 60.192C162.088 60.192 161.064 59.96 160.168 59.496C159.272 59.032 158.576 58.376 158.08 57.528C157.6 56.68 157.36 55.696 157.36 54.576C157.36 53.056 157.72 51.672 158.44 50.424C159.16 49.176 160.152 48.2 161.416 47.496C162.68 46.776 164.088 46.416 165.64 46.416C166.792 46.416 167.816 46.656 168.712 47.136C169.624 47.6 170.328 48.256 170.824 49.104C171.32 49.952 171.568 50.936 171.568 52.056C171.568 53.592 171.2 54.984 170.464 56.232C169.744 57.464 168.744 58.432 167.464 59.136C166.2 59.84 164.792 60.192 163.24 60.192ZM163.816 56.664C164.488 56.664 165.088 56.464 165.616 56.064C166.16 55.648 166.576 55.12 166.864 54.48C167.168 53.824 167.32 53.144 167.32 52.44C167.32 51.64 167.104 51.024 166.672 50.592C166.24 50.16 165.696 49.944 165.04 49.944C164.352 49.944 163.744 50.152 163.216 50.568C162.704 50.968 162.304 51.496 162.016 52.152C161.728 52.808 161.584 53.496 161.584 54.216C161.584 55 161.792 55.608 162.208 56.04C162.624 56.456 163.16 56.664 163.816 56.664ZM179.626 49.032C180.25 48.232 180.962 47.608 181.762 47.16C182.578 46.696 183.426 46.464 184.306 46.464L183.538 50.808H182.41C181.386 50.808 180.578 51.032 179.986 51.48C179.394 51.912 179.002 52.68 178.81 53.784L177.706 60H173.602L175.954 46.608H180.058L179.626 49.032ZM190.491 46.608L192.123 54.984L196.683 46.608H201.123L189.243 66.36H184.827L189.099 59.544L185.931 46.608H190.491Z" fill="white"/>
<circle cx="40" cy="40" r="40" fill="white"/>
<path d="M38.5625 55.6875C38.5833 55.7917 38.6042 55.9375 38.625 56.125C38.6667 56.3125 38.6875 56.4688 38.6875 56.5938C38.6875 57.2188 38.5417 57.6875 38.25 58H21.75L21.5 57.4062C21.5 57.0938 21.5625 56.7917 21.6875 56.5C21.8125 56.1875 21.9792 55.9062 22.1875 55.6562C23.9583 55.6562 25.3333 55.3333 26.3125 54.6875C27.2917 54.0417 27.9792 52.8958 28.375 51.25C28.7292 49.7917 29.2917 47.6458 30.0625 44.8125C31.4167 39.9167 32.4792 35.7396 33.25 32.2812C34.0417 28.8021 34.4375 25.9688 34.4375 23.7812C34.4375 22.9479 34.2292 22.3229 33.8125 21.9062C33.3958 21.4688 32.8958 21.1979 32.3125 21.0938C31.75 20.9688 30.9896 20.875 30.0312 20.8125C29.9271 20.3333 29.875 20.0312 29.875 19.9062C29.875 19.2812 30.0312 18.8125 30.3438 18.5H59.5938V27.8438C58.9688 28.3854 58.3542 28.6562 57.75 28.6562C57.2917 28.6562 56.8542 28.4688 56.4375 28.0938C56.4167 27.9896 56.3854 27.8646 56.3438 27.7188C56.3021 27.5521 56.2604 27.3646 56.2188 27.1562C55.9062 25.8438 55.5938 24.7708 55.2812 23.9375C54.9688 23.0833 54.4896 22.3542 53.8438 21.75C53.1979 21.125 52.3333 20.8125 51.25 20.8125H42.2812C41.0938 20.8125 40.3125 21.6458 39.9375 23.3125L36.6562 37.8125H47.25C48.1875 37.8125 48.9792 37.5625 49.625 37.0625C50.2708 36.5417 50.9167 35.875 51.5625 35.0625C51.8958 34.6667 52.1354 34.3958 52.2812 34.25C52.4479 34.0833 52.6042 34 52.75 34H54.8438L51.9375 44.9062H50.1875C50.0417 43.5729 49.7396 42.3958 49.2812 41.375C48.8229 40.3542 48.0729 39.8438 47.0312 39.8438H36.1562C36.0104 40.5312 35.6562 41.8854 35.0938 43.9062C34.5312 45.8854 34.1042 47.5417 33.8125 48.875C33.5417 50.1875 33.4062 51.5104 33.4062 52.8438C33.4062 53.8854 33.9375 54.6146 35 55.0312C36.0625 55.4271 37.25 55.6458 38.5625 55.6875Z" fill="#649D64"/>
</svg>
