<svg width="80" height="80" viewBox="0 0 80 80" fill="none" xmlns="http://www.w3.org/2000/svg">
<circle cx="40" cy="40" r="40" fill="white"/>
<path d="M38.5625 55.6875C38.5833 55.7917 38.6042 55.9375 38.625 56.125C38.6667 56.3125 38.6875 56.4688 38.6875 56.5938C38.6875 57.2188 38.5417 57.6875 38.25 58H21.75L21.5 57.4062C21.5 57.0938 21.5625 56.7917 21.6875 56.5C21.8125 56.1875 21.9792 55.9062 22.1875 55.6562C23.9583 55.6562 25.3333 55.3333 26.3125 54.6875C27.2917 54.0417 27.9792 52.8958 28.375 51.25C28.7292 49.7917 29.2917 47.6458 30.0625 44.8125C31.4167 39.9167 32.4792 35.7396 33.25 32.2812C34.0417 28.8021 34.4375 25.9688 34.4375 23.7812C34.4375 22.9479 34.2292 22.3229 33.8125 21.9062C33.3958 21.4688 32.8958 21.1979 32.3125 21.0938C31.75 20.9688 30.9896 20.875 30.0312 20.8125C29.9271 20.3333 29.875 20.0312 29.875 19.9062C29.875 19.2812 30.0312 18.8125 30.3438 18.5H59.5938V27.8438C58.9688 28.3854 58.3542 28.6562 57.75 28.6562C57.2917 28.6562 56.8542 28.4688 56.4375 28.0938C56.4167 27.9896 56.3854 27.8646 56.3438 27.7188C56.3021 27.5521 56.2604 27.3646 56.2188 27.1562C55.9062 25.8438 55.5938 24.7708 55.2812 23.9375C54.9688 23.0833 54.4896 22.3542 53.8438 21.75C53.1979 21.125 52.3333 20.8125 51.25 20.8125H42.2812C41.0938 20.8125 40.3125 21.6458 39.9375 23.3125L36.6562 37.8125H47.25C48.1875 37.8125 48.9792 37.5625 49.625 37.0625C50.2708 36.5417 50.9167 35.875 51.5625 35.0625C51.8958 34.6667 52.1354 34.3958 52.2812 34.25C52.4479 34.0833 52.6042 34 52.75 34H54.8438L51.9375 44.9062H50.1875C50.0417 43.5729 49.7396 42.3958 49.2812 41.375C48.8229 40.3542 48.0729 39.8438 47.0312 39.8438H36.1562C36.0104 40.5312 35.6562 41.8854 35.0938 43.9062C34.5312 45.8854 34.1042 47.5417 33.8125 48.875C33.5417 50.1875 33.4062 51.5104 33.4062 52.8438C33.4062 53.8854 33.9375 54.6146 35 55.0312C36.0625 55.4271 37.25 55.6458 38.5625 55.6875Z" fill="#649D64"/>
</svg>
